{"title":"Source Code 2011 1080p BDRip(AC3-5 1ch)[Dual-Audio][Bluray Hindi","uid":10001326,"size":2622178428,"categoryP":"video","categoryS":"hd___movies","magnet":"?xt=urn:btih:ab3be947cc25ce25b709c5c5783f07a71badf69f&amp;dn=Source+Code+2011+1080p+BDRip%28AC3-5+1ch%29%5BDual-Audio%5D%5BBluray+Hindi&amp;tr=udp%3A%2F%2Ftracker.openbittorrent.com%3A80&amp;tr=udp%3A%2F%2Fopen.demonii.com%3A1337&amp;tr=udp%3A%2F%2Ftracker.coppersurfer.tk%3A6969&amp;tr=udp%3A%2F%2Fexodus.desync.com%3A6969","seeders":2,"leechers":4,"uploader":"boniin","files":-1,"time":1397983072,"description":"General\nUnique ID                                : 234081327462710032782647421559506369106 (0xB01A6C7E0A865827881CCDF887C67A52)\nComplete name                            : A:M.Inam UllahSource Code (2011) 1080p BluRay {1920x1080p} {Dual Audio} {6Ch.} [Hindi-English] ~SaNRiM~New folderSource Code (2011.mkv\nFormat                                   : Matroska\nFormat version                           : Version 4 / Version 2\nFile size                                : 2.42 GiB\nDuration                                 : 1h 32mn\nOverall bit rate                         : 3 730 Kbps\nMovie name                               : Hi-man\nEncoded date                             : UTC 2014-04-19 08:53:33\nWriting application                      : mkvmerge v6.8.0 ('Theme for Great Cities') 32bit built on Mar  2 2014 21:27:07\nWriting library                          : libebml v1.3.0 + libmatroska v1.4.1\n\nVideo\nID                                       : 1\nFormat                                   : AVC\nFormat/Info                              : Advanced Video Codec\nFormat profile                           : &lt;a class=&quot;__cf_email__&quot; href=&quot;/cdn-cgi/l/email-protection&quot; data-cfemail=&quot;a7eac6cec9e7eb938997&quot;&gt;[email&amp;#160;protected]&lt;/a&gt;&lt;script cf-hash='f9e31' type=&quot;text/javascript&quot;&gt;\n/* &lt;![CDATA[ */!function(){try{var t=&quot;currentScript&quot;in document?document.currentScript:function(){for(var t=document.getElementsByTagName(&quot;script&quot;),e=t.length;e--;)if(t[e].getAttribute(&quot;cf-hash&quot;))return t[e]}();if(t&amp;&amp;t.previousSibling){var e,r,n,i,c=t.previousSibling,a=c.getAttribute(&quot;data-cfemail&quot;);if(a){for(e=&quot;&quot;,r=parseInt(a.substr(0,2),16),n=2;a.length-n;n+=2)i=parseInt(a.substr(n,2),16)^r,e+=String.fromCharCode(i);e=document.createTextNode(e),c.parentNode.replaceChild(e,c)}}}catch(u){}}();/* ]]&gt; */&lt;/script&gt;\nFormat settings, CABAC                   : Yes\nFormat settings, ReFrames                : 4 frames\nCodec ID                                 : V_MPEG4/ISO/AVC\nDuration                                 : 1h 32mn\nBit rate                                 : 2 567 Kbps\nWidth                                    : 1 920 pixels\nHeight                                   : 1 080 pixels\nDisplay aspect ratio                     : 16:9\nFrame rate mode                          : Constant\nFrame rate                               : 24.000 fps\nColor space                              : YUV\nChroma subsampling                       : 4:2:0\nBit depth                                : 8 bits\nScan type                                : Progressive\nBits/(Pixel*Frame)                       : 0.052\nStream size                              : 1.66 GiB (69%)\nLanguage                                 : English\nDefault                                  : Yes\nForced                                   : No\nColor primaries                          : BT.709\nTransfer characteristics                 : BT.709\nMatrix coefficients                      : BT.709\n\nAudio #1\nID                                       : 2\nFormat                                   : AC-3\nFormat/Info                              : Audio Coding 3\nMode extension                           : CM (complete main)\nFormat settings, Endianness              : Big\nCodec ID                                 : A_AC3\nDuration                                 : 1h 32mn\nBit rate mode                            : Constant\nBit rate                                 : 640 Kbps\nChannel(s)                               : 6 channels\nChannel positions                        : Front: L C R, Side: L R, LFE\nSampling rate                            : 48.0 KHz\nBit depth                                : 16 bits\nCompression mode                         : Lossy\nDelay relative to video                  : 6ms\nStream size                              : 425 MiB (17%)\nTitle                                    : Hi-man\nLanguage                                 : Hindi\nDefault                                  : Yes\nForced                                   : No\n\nAudio #2\nID                                       : 3\nFormat                                   : AC-3\nFormat/Info                              : Audio Coding 3\nMode extension                           : CM (complete main)\nFormat settings, Endianness              : Big\nCodec ID                                 : A_AC3\nDuration                                 : 1h 32mn\nBit rate mode                            : Constant\nBit rate                                 : 448 Kbps\nChannel(s)                               : 6 channels\nChannel positions                        : Front: L C R, Side: L R, LFE\nSampling rate                            : 48.0 KHz\nBit depth                                : 16 bits\nCompression mode                         : Lossy\nDelay relative to video                  : 6ms\nStream size                              : 297 MiB (12%)\nTitle                                    : Hi-man\nLanguage                                 : English\nDefault                                  : No\nForced                                   : No\n\nText\nID                                       : 4\nFormat                                   : PGS\nMuxing mode                              : zlib\nCodec ID                                 : S_HDMV/PGS\nCodec ID/Info                            : The same subtitle format used on BDs/HD-DVDs\nDefault                                  : Yes\nForced                                   : No\n\n\nScreenshots:\n &lt;a href=&quot;\nhttp://someimage.com/jl9fkBw&quot; rel=&quot;nofollow&quot; target=&quot;_NEW&quot;&gt;\nhttp://someimage.com/jl9fkBw&lt;/a&gt; &lt;a href=&quot;\nhttp://someimage.com/Pm2Ws8a&quot; rel=&quot;nofollow&quot; target=&quot;_NEW&quot;&gt;\nhttp://someimage.com/Pm2Ws8a&lt;/a&gt; &lt;a href=&quot;\nhttp://someimage.com/1gWuAaR&quot; rel=&quot;nofollow&quot; target=&quot;_NEW&quot;&gt;\nhttp://someimage.com/1gWuAaR&lt;/a&gt; &lt;a href=&quot;\nhttp://someimage.com/cWcIRks&quot; rel=&quot;nofollow&quot; target=&quot;_NEW&quot;&gt;\nhttp://someimage.com/cWcIRks&lt;/a&gt; &lt;a href=&quot;\nhttp://someimage.com/7EUXk0a&quot; rel=&quot;nofollow&quot; target=&quot;_NEW&quot;&gt;\nhttp://someimage.com/7EUXk0a&lt;/a&gt; &lt;a href=&quot;\nhttp://someimage.com/jl9fkBw&quot; rel=&quot;nofollow&quot; target=&quot;_NEW&quot;&gt;\nhttp://someimage.com/jl9fkBw&lt;/a&gt;\n","torrent":{"xt":"urn:btih:ab3be947cc25ce25b709c5c5783f07a71badf69f","amp;dn":"Source+Code+2011+1080p+BDRip%28AC3-5+1ch%29%5BDual-Audio%5D%5BBluray+Hindi","amp;tr":["udp%3A%2F%2Ftracker.openbittorrent.com%3A80","udp%3A%2F%2Fopen.demonii.com%3A1337","udp%3A%2F%2Ftracker.coppersurfer.tk%3A6969","udp%3A%2F%2Fexodus.desync.com%3A6969"],"infoHash":"ab3be947cc25ce25b709c5c5783f07a71badf69f","infoHashBuffer":{"type":"Buffer","data":[171,59,233,71,204,37,206,37,183,9,197,197,120,63,7,167,27,173,246,159]},"announce":[],"urlList":[]}}